<svg width="126" height="42" viewBox="0 0 126 42" fill="none" xmlns="http://www.w3.org/2000/svg">
<g id="Tapsi">
<path id="Logo" fill-rule="evenodd" clip-rule="evenodd" d="M22.7299 11.1172H42.0005V17.7054H22.7299V11.1172ZM9.88281 24.2937H42.0005V30.8819H9.88281V24.2937Z" fill="#276EF1"/>
<path id="Shape" fill-rule="evenodd" clip-rule="evenodd" d="M81.3242 16.2358V20.4709H83.1975C84.1874 20.4709 85.0005 19.7075 85.0666 18.7449L85.0709 18.6183V16.2358H88.2829V18.6183C88.2829 19.6397 89.1232 20.4709 90.1564 20.4709C91.1463 20.4709 91.9594 19.7075 92.0255 18.7449L92.0298 18.6183L92.0296 16.236L95.2416 16.2358L95.2418 18.6181C95.2418 19.5971 96.0137 20.4013 96.987 20.4666L97.1151 20.4709H102.735V16.2358H105.947V20.4709H112.906L112.906 16.236L116.118 16.2358V23.6476H97.1151C95.7699 23.6476 94.5461 23.1275 93.6358 22.2812C92.7253 23.1275 91.5013 23.6476 90.1564 23.6476C88.8112 23.6476 87.5872 23.1275 86.6769 22.2812C85.82 23.0777 84.6855 23.5853 83.4335 23.6422L83.1975 23.6476H67.9417V24.1768C67.9417 28.5558 64.3398 32.1181 59.9122 32.1181C55.5587 32.1181 52.0031 28.6735 51.8858 24.3951L51.8828 24.1768V20.4709H55.0948V24.1768C55.0948 26.8042 57.2558 28.9414 59.9122 28.9414C62.5083 28.9414 64.6313 26.9002 64.7264 24.3552L64.7297 24.1768V23.6476H60.9828V20.4709H78.1122V16.2358H81.3242ZM105.809 25.7652V32.1181H102.514V29.2305H98.6715V25.7652H105.809ZM116.118 9.88281H109.774V13.0593H116.118V9.88281Z" fill="black"/>
</g>
</svg>
